<svg width="108" height="108" viewBox="0 0 108 108" fill="none" xmlns="http://www.w3.org/2000/svg">
<path d="M34.528 24.624C34.528 24.2507 34.668 23.9333 34.948 23.672C35.228 23.4107 35.5733 23.28 35.984 23.28C36.376 23.28 36.712 23.4107 36.992 23.672C37.272 23.9333 37.412 24.2507 37.412 24.624C37.412 24.9973 37.272 25.3147 36.992 25.576C36.712 25.8373 36.376 25.968 35.984 25.968C35.5733 25.968 35.228 25.8373 34.948 25.576C34.668 25.3147 34.528 24.9973 34.528 24.624ZM34.444 27.396C34.444 27.004 34.584 26.668 34.864 26.388C35.1627 26.108 35.5173 25.968 35.928 25.968C36.3387 25.968 36.684 26.108 36.964 26.388C37.2627 26.668 37.412 27.004 37.412 27.396C37.412 27.788 37.2627 28.124 36.964 28.404C36.684 28.684 36.3387 28.824 35.928 28.824C35.5173 28.824 35.1627 28.684 34.864 28.404C34.584 28.124 34.444 27.788 34.444 27.396ZM34.444 30.196C34.444 29.8227 34.584 29.5053 34.864 29.244C35.1627 28.964 35.5267 28.824 35.956 28.824C36.3667 28.824 36.712 28.964 36.992 29.244C37.2907 29.5053 37.44 29.8227 37.44 30.196C37.44 30.588 37.2907 30.924 36.992 31.204C36.712 31.4653 36.3667 31.596 35.956 31.596C35.5267 31.596 35.1627 31.4653 34.864 31.204C34.584 30.924 34.444 30.588 34.444 30.196ZM34.416 32.996C34.416 32.604 34.5653 32.2773 34.864 32.016C35.1627 31.736 35.5173 31.596 35.928 31.596C36.3387 31.596 36.6933 31.736 36.992 32.016C37.2907 32.2773 37.44 32.604 37.44 32.996C37.44 33.388 37.2907 33.724 36.992 34.004C36.6933 34.2653 36.3387 34.396 35.928 34.396C35.5173 34.396 35.1627 34.2653 34.864 34.004C34.5653 33.724 34.416 33.388 34.416 32.996ZM34.416 35.824C34.416 35.432 34.5653 35.096 34.864 34.816C35.1627 34.536 35.5173 34.396 35.928 34.396C36.3387 34.396 36.6933 34.536 36.992 34.816C37.2907 35.096 37.44 35.432 37.44 35.824C37.44 36.216 37.2907 36.552 36.992 36.832C36.6933 37.112 36.3387 37.252 35.928 37.252C35.5173 37.252 35.1627 37.112 34.864 36.832C34.5653 36.552 34.416 36.216 34.416 35.824ZM34.444 38.68C34.444 38.288 34.584 37.952 34.864 37.672C35.1627 37.392 35.5267 37.252 35.956 37.252C36.3667 37.252 36.712 37.392 36.992 37.672C37.2907 37.952 37.44 38.288 37.44 38.68C37.44 39.072 37.2907 39.408 36.992 39.688C36.712 39.968 36.3667 40.108 35.956 40.108C35.5267 40.108 35.1627 39.968 34.864 39.688C34.584 39.408 34.444 39.072 34.444 38.68ZM34.444 41.452C34.444 41.0787 34.584 40.7613 34.864 40.5C35.1627 40.2387 35.5267 40.108 35.956 40.108C36.3667 40.108 36.712 40.2387 36.992 40.5C37.2907 40.7613 37.44 41.0787 37.44 41.452C37.44 41.8253 37.2907 42.1427 36.992 42.404C36.712 42.6653 36.3667 42.796 35.956 42.796C35.5267 42.796 35.1627 42.6653 34.864 42.404C34.584 42.1427 34.444 41.8253 34.444 41.452ZM37.412 41.452C37.412 41.0787 37.552 40.7613 37.832 40.5C38.112 40.2387 38.448 40.108 38.84 40.108C39.232 40.108 39.568 40.2387 39.848 40.5C40.128 40.7613 40.268 41.0787 40.268 41.452C40.268 41.8253 40.128 42.1427 39.848 42.404C39.568 42.6653 39.232 42.796 38.84 42.796C38.448 42.796 38.112 42.6653 37.832 42.404C37.552 42.1427 37.412 41.8253 37.412 41.452ZM31 41.424C31 41.0507 31.1307 40.7333 31.392 40.472C31.672 40.192 32.008 40.052 32.4 40.052C32.792 40.052 33.1187 40.192 33.38 40.472C33.66 40.7333 33.8 41.0507 33.8 41.424C33.8 41.7973 33.66 42.124 33.38 42.404C33.1187 42.6653 32.792 42.796 32.4 42.796C32.008 42.796 31.672 42.6653 31.392 42.404C31.1307 42.124 31 41.7973 31 41.424ZM31 27.452C31 27.0973 31.14 26.7893 31.42 26.528C31.7 26.2667 32.036 26.136 32.428 26.136C32.82 26.136 33.156 26.2667 33.436 26.528C33.716 26.7893 33.856 27.0973 33.856 27.452C33.856 27.8253 33.716 28.1427 33.436 28.404C33.156 28.6653 32.82 28.796 32.428 28.796C32.036 28.796 31.7 28.6653 31.42 28.404C31.14 28.1427 31 27.8253 31 27.452Z" fill="#FFCC00"/>
<path d="M45.6646 41.424C45.6646 41.032 45.8046 40.696 46.0846 40.416C46.3832 40.136 46.7379 39.996 47.1486 39.996C47.5592 39.996 47.9046 40.136 48.1846 40.416C48.4832 40.696 48.6326 41.032 48.6326 41.424C48.6326 41.8347 48.4832 42.18 48.1846 42.46C47.9046 42.74 47.5592 42.88 47.1486 42.88C46.7379 42.88 46.3832 42.74 46.0846 42.46C45.8046 42.18 45.6646 41.8347 45.6646 41.424ZM55.0726 41.424C55.0726 41.0507 55.2126 40.7333 55.4926 40.472C55.7726 40.2107 56.1086 40.08 56.5006 40.08C56.8739 40.08 57.2006 40.2107 57.4806 40.472C57.7606 40.7333 57.9006 41.0507 57.9006 41.424C57.9006 41.816 57.7606 42.1427 57.4806 42.404C57.2006 42.6653 56.8739 42.796 56.5006 42.796C56.1086 42.796 55.7726 42.6653 55.4926 42.404C55.2126 42.1427 55.0726 41.816 55.0726 41.424ZM51.7966 41.424C51.7966 41.0507 51.9366 40.7333 52.2166 40.472C52.4966 40.2107 52.8326 40.08 53.2246 40.08C53.5979 40.08 53.9246 40.2107 54.2046 40.472C54.4846 40.7333 54.6246 41.0507 54.6246 41.424C54.6246 41.816 54.4846 42.1427 54.2046 42.404C53.9246 42.6653 53.5979 42.796 53.2246 42.796C52.8326 42.796 52.4966 42.6653 52.2166 42.404C51.9366 42.1427 51.7966 41.816 51.7966 41.424ZM48.9126 33.024C48.9126 32.6507 49.0526 32.3333 49.3326 32.072C49.6126 31.792 49.9486 31.652 50.3406 31.652C50.7139 31.652 51.0406 31.792 51.3206 32.072C51.6006 32.3333 51.7406 32.6507 51.7406 33.024C51.7406 33.3973 51.6006 33.724 51.3206 34.004C51.0406 34.2653 50.7139 34.396 50.3406 34.396C49.9486 34.396 49.6126 34.2653 49.3326 34.004C49.0526 33.724 48.9126 33.3973 48.9126 33.024ZM45.1886 24.932C45.1886 24.5587 45.3286 24.2413 45.6086 23.98C45.8886 23.7 46.2246 23.56 46.6166 23.56C47.0086 23.56 47.3446 23.7 47.6246 23.98C47.9046 24.2413 48.0446 24.5587 48.0446 24.932C48.0446 25.3053 47.9046 25.632 47.6246 25.912C47.3446 26.1733 47.0086 26.304 46.6166 26.304C46.2246 26.304 45.8886 26.1733 45.6086 25.912C45.3286 25.632 45.1886 25.3053 45.1886 24.932ZM42.9766 41.48C42.9766 41.1067 43.1166 40.7893 43.3966 40.528C43.6766 40.248 44.0126 40.108 44.4046 40.108C44.7779 40.108 45.1046 40.248 45.3846 40.528C45.6646 40.7893 45.8046 41.1067 45.8046 41.48C45.8046 41.872 45.6646 42.208 45.3846 42.488C45.1046 42.7493 44.7779 42.88 44.4046 42.88C44.0126 42.88 43.6766 42.7493 43.3966 42.488C43.1166 42.208 42.9766 41.872 42.9766 41.48ZM48.9966 41.424C48.9966 41.0507 49.1366 40.7333 49.4166 40.472C49.6966 40.2107 50.0326 40.08 50.4246 40.08C50.7979 40.08 51.1246 40.2107 51.4046 40.472C51.6846 40.7333 51.8246 41.0507 51.8246 41.424C51.8246 41.816 51.6846 42.1427 51.4046 42.404C51.1246 42.6653 50.7979 42.796 50.4246 42.796C50.0326 42.796 49.6966 42.6653 49.4166 42.404C49.1366 42.1427 48.9966 41.816 48.9966 41.424ZM42.9766 38.68C42.9766 38.3067 43.1166 37.9893 43.3966 37.728C43.6766 37.448 44.0126 37.308 44.4046 37.308C44.7779 37.308 45.1046 37.448 45.3846 37.728C45.6646 37.9893 45.8046 38.3067 45.8046 38.68C45.8046 39.072 45.6646 39.408 45.3846 39.688C45.1046 39.9493 44.7779 40.08 44.4046 40.08C44.0126 40.08 43.6766 39.9493 43.3966 39.688C43.1166 39.408 42.9766 39.072 42.9766 38.68ZM45.3846 36.104C45.3846 35.712 45.5246 35.376 45.8046 35.096C46.1032 34.816 46.4579 34.676 46.8686 34.676C47.2792 34.676 47.6246 34.816 47.9046 35.096C48.2032 35.376 48.3526 35.712 48.3526 36.104C48.3526 36.5147 48.2032 36.86 47.9046 37.14C47.6246 37.42 47.2792 37.56 46.8686 37.56C46.4579 37.56 46.1032 37.42 45.8046 37.14C45.5246 36.86 45.3846 36.5147 45.3846 36.104ZM51.7126 33.024C51.7126 32.6507 51.8526 32.3333 52.1326 32.072C52.4126 31.792 52.7486 31.652 53.1406 31.652C53.5139 31.652 53.8406 31.792 54.1206 32.072C54.4006 32.3333 54.5406 32.6507 54.5406 33.024C54.5406 33.3973 54.4006 33.724 54.1206 34.004C53.8406 34.2653 53.5139 34.396 53.1406 34.396C52.7486 34.396 52.4126 34.2653 52.1326 34.004C51.8526 33.724 51.7126 33.3973 51.7126 33.024ZM55.1006 30.224C55.1006 29.832 55.2312 29.496 55.4926 29.216C55.7726 28.936 56.1086 28.796 56.5006 28.796C56.8926 28.796 57.2192 28.936 57.4806 29.216C57.7606 29.496 57.9006 29.832 57.9006 30.224C57.9006 30.616 57.7606 30.952 57.4806 31.232C57.2192 31.512 56.8926 31.652 56.5006 31.652C56.1086 31.652 55.7726 31.512 55.4926 31.232C55.2312 30.952 55.1006 30.616 55.1006 30.224ZM54.9606 27.396C54.9606 27.0227 55.1006 26.7053 55.3806 26.444C55.6792 26.164 56.0339 26.024 56.4446 26.024C56.8366 26.024 57.1726 26.164 57.4526 26.444C57.7512 26.7053 57.9006 27.0227 57.9006 27.396C57.9006 27.788 57.7512 28.124 57.4526 28.404C57.1726 28.6653 56.8366 28.796 56.4446 28.796C56.0339 28.796 55.6792 28.6653 55.3806 28.404C55.1006 28.124 54.9606 27.788 54.9606 27.396ZM51.6846 24.652C51.6846 24.2787 51.8152 23.9613 52.0766 23.7C52.3379 23.42 52.6646 23.28 53.0566 23.28C53.4299 23.28 53.7472 23.42 54.0086 23.7C54.2699 23.9613 54.4006 24.2787 54.4006 24.652C54.4006 25.0253 54.2699 25.352 54.0086 25.632C53.7472 25.8933 53.4299 26.024 53.0566 26.024C52.6646 26.024 52.3379 25.8933 52.0766 25.632C51.8152 25.352 51.6846 25.0253 51.6846 24.652ZM48.8286 24.652C48.8286 24.2787 48.9686 23.9613 49.2486 23.7C49.5286 23.42 49.8646 23.28 50.2566 23.28C50.6486 23.28 50.9846 23.42 51.2646 23.7C51.5446 23.9613 51.6846 24.2787 51.6846 24.652C51.6846 25.0253 51.5446 25.352 51.2646 25.632C50.9846 25.8933 50.6486 26.024 50.2566 26.024C49.8646 26.024 49.5286 25.8933 49.2486 25.632C48.9686 25.352 48.8286 25.0253 48.8286 24.652ZM42.9766 27.396C42.9766 27.0227 43.1072 26.7053 43.3686 26.444C43.6486 26.164 43.9846 26.024 44.3766 26.024C44.7499 26.024 45.0672 26.164 45.3286 26.444C45.6086 26.7053 45.7486 27.0227 45.7486 27.396C45.7486 27.788 45.6086 28.124 45.3286 28.404C45.0672 28.6653 44.7499 28.796 44.3766 28.796C43.9846 28.796 43.6486 28.6653 43.3686 28.404C43.1072 28.124 42.9766 27.788 42.9766 27.396Z" fill="#FFCC00"/>
<path d="M60.6146 29.188C60.6146 28.796 60.7546 28.46 61.0346 28.18C61.3146 27.8813 61.6506 27.732 62.0426 27.732C62.4159 27.732 62.7426 27.8813 63.0226 28.18C63.3026 28.46 63.4426 28.796 63.4426 29.188C63.4426 29.5987 63.3026 29.9533 63.0226 30.252C62.7426 30.532 62.4159 30.672 62.0426 30.672C61.6506 30.672 61.3146 30.532 61.0346 30.252C60.7546 29.9533 60.6146 29.5987 60.6146 29.188ZM60.3906 38.512C60.3906 38.12 60.5399 37.784 60.8386 37.504C61.1373 37.224 61.5013 37.084 61.9306 37.084C62.3599 37.084 62.7053 37.224 62.9666 37.504C63.2466 37.784 63.3866 38.12 63.3866 38.512C63.3866 38.904 63.2466 39.24 62.9666 39.52C62.7053 39.8 62.3599 39.94 61.9306 39.94C61.5013 39.94 61.1373 39.8 60.8386 39.52C60.5399 39.24 60.3906 38.904 60.3906 38.512ZM63.4706 35.6C63.4706 35.208 63.6106 34.872 63.8906 34.592C64.1706 34.2933 64.5066 34.144 64.8986 34.144C65.2719 34.144 65.5986 34.2933 65.8786 34.592C66.1586 34.872 66.2986 35.208 66.2986 35.6C66.2986 36.0107 66.1586 36.3653 65.8786 36.664C65.5986 36.944 65.2719 37.084 64.8986 37.084C64.5066 37.084 64.1706 36.944 63.8906 36.664C63.6106 36.3653 63.4706 36.0107 63.4706 35.6ZM63.3306 24.428C63.3306 24.036 63.4799 23.7 63.7786 23.42C64.0773 23.14 64.4413 23 64.8706 23C65.2999 23 65.6639 23.14 65.9626 23.42C66.2613 23.7 66.4106 24.036 66.4106 24.428C66.4106 24.82 66.2613 25.156 65.9626 25.436C65.6639 25.716 65.2999 25.856 64.8706 25.856C64.4413 25.856 64.0773 25.716 63.7786 25.436C63.4799 25.156 63.3306 24.82 63.3306 24.428ZM63.4706 27.2C63.4706 26.8267 63.6013 26.5093 63.8626 26.248C64.1426 25.9867 64.4786 25.856 64.8706 25.856C65.2626 25.856 65.5893 25.9867 65.8506 26.248C66.1306 26.5093 66.2706 26.8267 66.2706 27.2C66.2706 27.592 66.1306 27.9187 65.8506 28.18C65.5893 28.4413 65.2626 28.572 64.8706 28.572C64.4786 28.572 64.1426 28.4413 63.8626 28.18C63.6013 27.9187 63.4706 27.592 63.4706 27.2ZM63.4706 32.66C63.4706 32.268 63.6106 31.932 63.8906 31.652C64.1706 31.3533 64.5066 31.204 64.8986 31.204C65.2719 31.204 65.5986 31.3533 65.8786 31.652C66.1586 31.932 66.2986 32.268 66.2986 32.66C66.2986 33.0707 66.1586 33.4253 65.8786 33.724C65.5986 34.004 65.2719 34.144 64.8986 34.144C64.5066 34.144 64.1706 34.004 63.8906 33.724C63.6106 33.4253 63.4706 33.0707 63.4706 32.66ZM63.3866 38.512C63.3866 38.12 63.5173 37.784 63.7786 37.504C64.0586 37.224 64.4133 37.084 64.8426 37.084C65.2719 37.084 65.6359 37.224 65.9346 37.504C66.2333 37.784 66.3826 38.12 66.3826 38.512C66.3826 38.904 66.2333 39.24 65.9346 39.52C65.6359 39.8 65.2719 39.94 64.8426 39.94C64.4133 39.94 64.0586 39.8 63.7786 39.52C63.5173 39.24 63.3866 38.904 63.3866 38.512ZM67.1106 27.2C67.1106 26.8267 67.2413 26.5093 67.5026 26.248C67.7826 25.9867 68.1186 25.856 68.5106 25.856C68.9026 25.856 69.2293 25.9867 69.4906 26.248C69.7706 26.5093 69.9106 26.8267 69.9106 27.2C69.9106 27.592 69.7706 27.9187 69.4906 28.18C69.2293 28.4413 68.9026 28.572 68.5106 28.572C68.1186 28.572 67.7826 28.4413 67.5026 28.18C67.2413 27.9187 67.1106 27.592 67.1106 27.2ZM67.1106 32.66C67.1106 32.268 67.2506 31.932 67.5306 31.652C67.8106 31.3533 68.1466 31.204 68.5386 31.204C68.9119 31.204 69.2386 31.3533 69.5186 31.652C69.7986 31.932 69.9386 32.268 69.9386 32.66C69.9386 33.0707 69.7986 33.4253 69.5186 33.724C69.2386 34.004 68.9119 34.144 68.5386 34.144C68.1466 34.144 67.8106 34.004 67.5306 33.724C67.2506 33.4253 67.1106 33.0707 67.1106 32.66ZM66.9426 38.512C66.9426 38.12 67.0919 37.784 67.3906 37.504C67.6893 37.224 68.0533 37.084 68.4826 37.084C68.9119 37.084 69.2573 37.224 69.5186 37.504C69.7986 37.784 69.9386 38.12 69.9386 38.512C69.9386 38.904 69.7986 39.24 69.5186 39.52C69.2573 39.8 68.9119 39.94 68.4826 39.94C68.0533 39.94 67.6893 39.8 67.3906 39.52C67.0919 39.24 66.9426 38.904 66.9426 38.512ZM69.9106 29.916C69.9106 29.5427 70.0413 29.2253 70.3026 28.964C70.5826 28.7027 70.9186 28.572 71.3106 28.572C71.7026 28.572 72.0293 28.7027 72.2906 28.964C72.5706 29.2253 72.7106 29.5427 72.7106 29.916C72.7106 30.308 72.5706 30.6347 72.2906 30.896C72.0293 31.1573 71.7026 31.288 71.3106 31.288C70.9186 31.288 70.5826 31.1573 70.3026 30.896C70.0413 30.6347 69.9106 30.308 69.9106 29.916ZM69.9106 35.6C69.9106 35.208 70.0506 34.872 70.3306 34.592C70.6106 34.2933 70.9466 34.144 71.3386 34.144C71.7119 34.144 72.0386 34.2933 72.3186 34.592C72.5986 34.872 72.7386 35.208 72.7386 35.6C72.7386 36.0107 72.5986 36.3653 72.3186 36.664C72.0386 36.944 71.7119 37.084 71.3386 37.084C70.9466 37.084 70.6106 36.944 70.3306 36.664C70.0506 36.3653 69.9106 36.0107 69.9106 35.6ZM69.7426 41.368C69.7426 40.976 69.8919 40.64 70.1906 40.36C70.4893 40.08 70.8533 39.94 71.2826 39.94C71.7119 39.94 72.0759 40.08 72.3746 40.36C72.6733 40.64 72.8226 40.976 72.8226 41.368C72.8226 41.76 72.6733 42.096 72.3746 42.376C72.0759 42.656 71.7119 42.796 71.2826 42.796C70.8533 42.796 70.4893 42.656 70.1906 42.376C69.8919 42.096 69.7426 41.76 69.7426 41.368ZM69.9106 27.2C69.9106 26.8267 70.0413 26.5093 70.3026 26.248C70.5826 25.9867 70.9186 25.856 71.3106 25.856C71.7026 25.856 72.0293 25.9867 72.2906 26.248C72.5706 26.5093 72.7106 26.8267 72.7106 27.2C72.7106 27.592 72.5706 27.9187 72.2906 28.18C72.0293 28.4413 71.7026 28.572 71.3106 28.572C70.9186 28.572 70.5826 28.4413 70.3026 28.18C70.0413 27.9187 69.9106 27.592 69.9106 27.2ZM69.9106 32.66C69.9106 32.268 70.0506 31.932 70.3306 31.652C70.6106 31.3533 70.9466 31.204 71.3386 31.204C71.7119 31.204 72.0386 31.3533 72.3186 31.652C72.5986 31.932 72.7386 32.268 72.7386 32.66C72.7386 33.0707 72.5986 33.4253 72.3186 33.724C72.0386 34.004 71.7119 34.144 71.3386 34.144C70.9466 34.144 70.6106 34.004 70.3306 33.724C70.0506 33.4253 69.9106 33.0707 69.9106 32.66ZM69.8266 38.512C69.8266 38.12 69.9573 37.784 70.2186 37.504C70.4986 37.224 70.8533 37.084 71.2826 37.084C71.7119 37.084 72.0759 37.224 72.3746 37.504C72.6733 37.784 72.8226 38.12 72.8226 38.512C72.8226 38.904 72.6733 39.24 72.3746 39.52C72.0759 39.8 71.7119 39.94 71.2826 39.94C70.8533 39.94 70.4986 39.8 70.2186 39.52C69.9573 39.24 69.8266 38.904 69.8266 38.512ZM73.5506 27.2C73.5506 26.8267 73.6813 26.5093 73.9426 26.248C74.2226 25.9867 74.5586 25.856 74.9506 25.856C75.3426 25.856 75.6693 25.9867 75.9306 26.248C76.2106 26.5093 76.3506 26.8267 76.3506 27.2C76.3506 27.592 76.2106 27.9187 75.9306 28.18C75.6693 28.4413 75.3426 28.572 74.9506 28.572C74.5586 28.572 74.2226 28.4413 73.9426 28.18C73.6813 27.9187 73.5506 27.592 73.5506 27.2ZM73.5506 32.66C73.5506 32.268 73.6906 31.932 73.9706 31.652C74.2506 31.3533 74.5866 31.204 74.9786 31.204C75.3519 31.204 75.6786 31.3533 75.9586 31.652C76.2386 31.932 76.3786 32.268 76.3786 32.66C76.3786 33.0707 76.2386 33.4253 75.9586 33.724C75.6786 34.004 75.3519 34.144 74.9786 34.144C74.5866 34.144 74.2506 34.004 73.9706 33.724C73.6906 33.4253 73.5506 33.0707 73.5506 32.66ZM73.3826 38.512C73.3826 38.12 73.5319 37.784 73.8306 37.504C74.1293 37.224 74.4933 37.084 74.9226 37.084C75.3519 37.084 75.6973 37.224 75.9586 37.504C76.2386 37.784 76.3786 38.12 76.3786 38.512C76.3786 38.904 76.2386 39.24 75.9586 39.52C75.6973 39.8 75.3519 39.94 74.9226 39.94C74.4933 39.94 74.1293 39.8 73.8306 39.52C73.5319 39.24 73.3826 38.904 73.3826 38.512Z" fill="#FFCC00"/>
<path d="M44.96 46.652C44.96 46.2787 45.0907 45.9613 45.352 45.7C45.632 45.42 45.968 45.28 46.36 45.28C46.752 45.28 47.0787 45.42 47.34 45.7C47.62 45.9613 47.76 46.2787 47.76 46.652C47.76 47.0253 47.62 47.352 47.34 47.632C47.0787 47.8933 46.752 48.024 46.36 48.024C45.968 48.024 45.632 47.8933 45.352 47.632C45.0907 47.352 44.96 47.0253 44.96 46.652ZM44.82 54.968C44.82 54.576 44.9507 54.24 45.212 53.96C45.492 53.68 45.828 53.54 46.22 53.54C46.612 53.54 46.9387 53.68 47.2 53.96C47.48 54.24 47.62 54.576 47.62 54.968C47.62 55.36 47.48 55.696 47.2 55.976C46.9387 56.256 46.612 56.396 46.22 56.396C45.828 56.396 45.492 56.256 45.212 55.976C44.9507 55.696 44.82 55.36 44.82 54.968ZM44.96 63.424C44.96 63.0507 45.0907 62.7333 45.352 62.472C45.632 62.192 45.968 62.052 46.36 62.052C46.752 62.052 47.0787 62.192 47.34 62.472C47.62 62.7333 47.76 63.0507 47.76 63.424C47.76 63.7973 47.62 64.124 47.34 64.404C47.0787 64.6653 46.752 64.796 46.36 64.796C45.968 64.796 45.632 64.6653 45.352 64.404C45.0907 64.124 44.96 63.7973 44.96 63.424ZM38.632 46.652C38.632 46.2787 38.772 45.9613 39.052 45.7C39.3507 45.42 39.7053 45.28 40.116 45.28C40.5267 45.28 40.872 45.42 41.152 45.7C41.4507 45.9613 41.6 46.2787 41.6 46.652C41.6 47.0253 41.4507 47.352 41.152 47.632C40.872 47.8933 40.5267 48.024 40.116 48.024C39.7053 48.024 39.3507 47.8933 39.052 47.632C38.772 47.352 38.632 47.0253 38.632 46.652ZM42.16 46.652C42.16 46.2787 42.2907 45.9613 42.552 45.7C42.832 45.42 43.168 45.28 43.56 45.28C43.952 45.28 44.2787 45.42 44.54 45.7C44.82 45.9613 44.96 46.2787 44.96 46.652C44.96 47.0253 44.82 47.352 44.54 47.632C44.2787 47.8933 43.952 48.024 43.56 48.024C43.168 48.024 42.832 47.8933 42.552 47.632C42.2907 47.352 42.16 47.0253 42.16 46.652ZM48.292 49.424C48.292 49.032 48.4227 48.696 48.684 48.416C48.964 48.136 49.3 47.996 49.692 47.996C50.084 47.996 50.4107 48.136 50.672 48.416C50.952 48.696 51.092 49.032 51.092 49.424C51.092 49.816 50.952 50.152 50.672 50.432C50.4107 50.712 50.084 50.852 49.692 50.852C49.3 50.852 48.964 50.712 48.684 50.432C48.4227 50.152 48.292 49.816 48.292 49.424ZM48.124 52.196C48.124 51.8227 48.264 51.5053 48.544 51.244C48.8427 50.9827 49.1973 50.852 49.608 50.852C50.0187 50.852 50.364 50.9827 50.644 51.244C50.9427 51.5053 51.092 51.8227 51.092 52.196C51.092 52.5693 50.9427 52.8867 50.644 53.148C50.364 53.4093 50.0187 53.54 49.608 53.54C49.1973 53.54 48.8427 53.4093 48.544 53.148C48.264 52.8867 48.124 52.5693 48.124 52.196ZM42.02 54.968C42.02 54.576 42.1507 54.24 42.412 53.96C42.692 53.68 43.028 53.54 43.42 53.54C43.812 53.54 44.1387 53.68 44.4 53.96C44.68 54.24 44.82 54.576 44.82 54.968C44.82 55.36 44.68 55.696 44.4 55.976C44.1387 56.256 43.812 56.396 43.42 56.396C43.028 56.396 42.692 56.256 42.412 55.976C42.1507 55.696 42.02 55.36 42.02 54.968ZM35.916 49.48C35.916 49.088 36.056 48.752 36.336 48.472C36.616 48.192 36.9613 48.052 37.372 48.052C37.7827 48.052 38.128 48.192 38.408 48.472C38.688 48.752 38.828 49.088 38.828 49.48C38.828 49.8907 38.688 50.236 38.408 50.516C38.128 50.796 37.7827 50.936 37.372 50.936C36.9613 50.936 36.616 50.796 36.336 50.516C36.056 50.236 35.916 49.8907 35.916 49.48ZM35.916 60.624C35.916 60.232 36.056 59.896 36.336 59.616C36.616 59.336 36.952 59.196 37.344 59.196C37.7173 59.196 38.044 59.336 38.324 59.616C38.604 59.896 38.744 60.232 38.744 60.624C38.744 61.0347 38.604 61.38 38.324 61.66C38.044 61.94 37.7173 62.08 37.344 62.08C36.952 62.08 36.616 61.94 36.336 61.66C36.056 61.38 35.916 61.0347 35.916 60.624ZM38.744 63.424C38.744 63.0507 38.884 62.7333 39.164 62.472C39.444 62.2107 39.78 62.08 40.172 62.08C40.564 62.08 40.9 62.2107 41.18 62.472C41.46 62.7333 41.6 63.0507 41.6 63.424C41.6 63.816 41.46 64.1427 41.18 64.404C40.9 64.6653 40.564 64.796 40.172 64.796C39.78 64.796 39.444 64.6653 39.164 64.404C38.884 64.1427 38.744 63.816 38.744 63.424ZM42.16 63.424C42.16 63.0507 42.2907 62.7333 42.552 62.472C42.832 62.192 43.168 62.052 43.56 62.052C43.952 62.052 44.2787 62.192 44.54 62.472C44.82 62.7333 44.96 63.0507 44.96 63.424C44.96 63.7973 44.82 64.124 44.54 64.404C44.2787 64.6653 43.952 64.796 43.56 64.796C43.168 64.796 42.832 64.6653 42.552 64.404C42.2907 64.124 42.16 63.7973 42.16 63.424ZM48.32 60.652C48.32 60.26 48.4507 59.9333 48.712 59.672C48.992 59.392 49.328 59.252 49.72 59.252C50.0933 59.252 50.4107 59.392 50.672 59.672C50.952 59.9333 51.092 60.26 51.092 60.652C51.092 61.044 50.952 61.38 50.672 61.66C50.4107 61.9213 50.0933 62.052 49.72 62.052C49.328 62.052 48.992 61.9213 48.712 61.66C48.4507 61.38 48.32 61.044 48.32 60.652ZM48.208 57.824C48.208 57.4507 48.348 57.124 48.628 56.844C48.908 56.564 49.2533 56.424 49.664 56.424C50.056 56.424 50.392 56.564 50.672 56.844C50.952 57.124 51.092 57.4507 51.092 57.824C51.092 58.216 50.952 58.552 50.672 58.832C50.392 59.112 50.056 59.252 49.664 59.252C49.2533 59.252 48.908 59.112 48.628 58.832C48.348 58.552 48.208 58.216 48.208 57.824Z" fill="#FFCC00"/>
<path d="M54.0801 63.368C54.0801 62.976 54.2295 62.64 54.5281 62.36C54.8268 62.08 55.1908 61.94 55.6201 61.94C56.0495 61.94 56.4135 62.08 56.7121 62.36C57.0108 62.64 57.1601 62.976 57.1601 63.368C57.1601 63.816 57.0108 64.152 56.7121 64.376C56.3388 64.656 55.9748 64.796 55.6201 64.796C55.1908 64.796 54.8268 64.656 54.5281 64.376C54.2295 64.096 54.0801 63.76 54.0801 63.368ZM67.2401 63.368C67.2401 62.976 67.3895 62.64 67.6881 62.36C67.9868 62.08 68.3508 61.94 68.7801 61.94C69.2095 61.94 69.5735 62.08 69.8721 62.36C70.1708 62.64 70.3201 62.976 70.3201 63.368C70.3201 63.76 70.1708 64.096 69.8721 64.376C69.5735 64.656 69.2095 64.796 68.7801 64.796C68.3508 64.796 67.9868 64.656 67.6881 64.376C67.3895 64.096 67.2401 63.76 67.2401 63.368ZM57.0481 49.116C57.0481 48.7427 57.1788 48.4253 57.4401 48.164C57.7201 47.9027 58.0561 47.772 58.4481 47.772C58.8401 47.772 59.1668 47.9027 59.4281 48.164C59.7081 48.4253 59.8481 48.7427 59.8481 49.116C59.8481 49.508 59.7081 49.8347 59.4281 50.096C59.1668 50.3573 58.8401 50.488 58.4481 50.488C58.0561 50.488 57.7201 50.3573 57.4401 50.096C57.1788 49.8347 57.0481 49.508 57.0481 49.116ZM57.0481 54.8C57.0481 54.408 57.1881 54.072 57.4681 53.792C57.7481 53.4933 58.0841 53.344 58.4761 53.344C58.8495 53.344 59.1761 53.4933 59.4561 53.792C59.7361 54.072 59.8761 54.408 59.8761 54.8C59.8761 55.2107 59.7361 55.5653 59.4561 55.864C59.1761 56.144 58.8495 56.284 58.4761 56.284C58.0841 56.284 57.7481 56.144 57.4681 55.864C57.1881 55.5653 57.0481 55.2107 57.0481 54.8ZM56.8801 60.568C56.8801 60.176 57.0295 59.84 57.3281 59.56C57.6268 59.28 57.9908 59.14 58.4201 59.14C58.8495 59.14 59.2135 59.28 59.5121 59.56C59.8108 59.84 59.9601 60.176 59.9601 60.568C59.9601 61.016 59.8108 61.352 59.5121 61.576C59.1388 61.856 58.7748 61.996 58.4201 61.996C57.9908 61.996 57.6268 61.856 57.3281 61.576C57.0295 61.296 56.8801 60.96 56.8801 60.568ZM57.0481 46.4C57.0481 46.0267 57.1788 45.7093 57.4401 45.448C57.7201 45.1867 58.0561 45.056 58.4481 45.056C58.8401 45.056 59.1668 45.1867 59.4281 45.448C59.7081 45.7093 59.8481 46.0267 59.8481 46.4C59.8481 46.792 59.7081 47.1187 59.4281 47.38C59.1668 47.6413 58.8401 47.772 58.4481 47.772C58.0561 47.772 57.7201 47.6413 57.4401 47.38C57.1788 47.1187 57.0481 46.792 57.0481 46.4ZM57.0481 51.86C57.0481 51.468 57.1881 51.132 57.4681 50.852C57.7481 50.5533 58.0841 50.404 58.4761 50.404C58.8495 50.404 59.1761 50.5533 59.4561 50.852C59.7361 51.132 59.8761 51.468 59.8761 51.86C59.8761 52.2707 59.7361 52.6253 59.4561 52.924C59.1761 53.204 58.8495 53.344 58.4761 53.344C58.0841 53.344 57.7481 53.204 57.4681 52.924C57.1881 52.6253 57.0481 52.2707 57.0481 51.86ZM56.9641 57.712C56.9641 57.32 57.0948 56.984 57.3561 56.704C57.6361 56.424 57.9908 56.284 58.4201 56.284C58.8495 56.284 59.2135 56.424 59.5121 56.704C59.8108 56.984 59.9601 57.32 59.9601 57.712C59.9601 58.104 59.8108 58.44 59.5121 58.72C59.2135 59 58.8495 59.14 58.4201 59.14C57.9908 59.14 57.6361 59 57.3561 58.72C57.0948 58.44 56.9641 58.104 56.9641 57.712ZM60.9681 46.4C60.9681 46.0267 61.0988 45.7093 61.3601 45.448C61.6401 45.1867 61.9761 45.056 62.3681 45.056C62.7601 45.056 63.0868 45.1867 63.3481 45.448C63.6281 45.7093 63.7681 46.0267 63.7681 46.4C63.7681 46.792 63.6281 47.1187 63.3481 47.38C63.0868 47.6413 62.7601 47.772 62.3681 47.772C61.9761 47.772 61.6401 47.6413 61.3601 47.38C61.0988 47.1187 60.9681 46.792 60.9681 46.4ZM60.9681 51.86C60.9681 51.468 61.1081 51.132 61.3881 50.852C61.6681 50.5533 62.0041 50.404 62.3961 50.404C62.7695 50.404 63.0961 50.5533 63.3761 50.852C63.6561 51.132 63.7961 51.468 63.7961 51.86C63.7961 52.2707 63.6561 52.6253 63.3761 52.924C63.0961 53.204 62.7695 53.344 62.3961 53.344C62.0041 53.344 61.6681 53.204 61.3881 52.924C61.1081 52.6253 60.9681 52.2707 60.9681 51.86ZM60.6041 57.712C60.6041 57.32 60.7535 56.984 61.0521 56.704C61.3508 56.424 61.7148 56.284 62.1441 56.284C62.5735 56.284 62.9188 56.424 63.1801 56.704C63.4601 56.984 63.6001 57.32 63.6001 57.712C63.6001 58.104 63.4601 58.44 63.1801 58.72C62.9188 59 62.5735 59.14 62.1441 59.14C61.7148 59.14 61.3508 59 61.0521 58.72C60.7535 58.44 60.6041 58.104 60.6041 57.712ZM63.7681 46.4C63.7681 46.0267 63.8988 45.7093 64.1601 45.448C64.4401 45.1867 64.7761 45.056 65.1681 45.056C65.5601 45.056 65.8868 45.1867 66.1481 45.448C66.4281 45.7093 66.5681 46.0267 66.5681 46.4C66.5681 46.792 66.4281 47.1187 66.1481 47.38C65.8868 47.6413 65.5601 47.772 65.1681 47.772C64.7761 47.772 64.4401 47.6413 64.1601 47.38C63.8988 47.1187 63.7681 46.792 63.7681 46.4ZM63.7681 51.86C63.7681 51.468 63.9081 51.132 64.1881 50.852C64.4681 50.5533 64.8041 50.404 65.1961 50.404C65.5695 50.404 65.8961 50.5533 66.1761 50.852C66.4561 51.132 66.5961 51.468 66.5961 51.86C66.5961 52.2707 66.4561 52.6253 66.1761 52.924C65.8961 53.204 65.5695 53.344 65.1961 53.344C64.8041 53.344 64.4681 53.204 64.1881 52.924C63.9081 52.6253 63.7681 52.2707 63.7681 51.86ZM63.6001 57.712C63.6001 57.32 63.7495 56.984 64.0481 56.704C64.3468 56.424 64.7108 56.284 65.1401 56.284C65.5695 56.284 65.9148 56.424 66.1761 56.704C66.4561 56.984 66.5961 57.32 66.5961 57.712C66.5961 58.104 66.4561 58.44 66.1761 58.72C65.9148 59 65.5695 59.14 65.1401 59.14C64.7108 59.14 64.3468 59 64.0481 58.72C63.7495 58.44 63.6001 58.104 63.6001 57.712ZM67.4081 49.116C67.4081 48.7427 67.5388 48.4253 67.8001 48.164C68.0801 47.9027 68.4161 47.772 68.8081 47.772C69.2001 47.772 69.5268 47.9027 69.7881 48.164C70.0681 48.4253 70.2081 48.7427 70.2081 49.116C70.2081 49.508 70.0681 49.8347 69.7881 50.096C69.5268 50.3573 69.2001 50.488 68.8081 50.488C68.4161 50.488 68.0801 50.3573 67.8001 50.096C67.5388 49.8347 67.4081 49.508 67.4081 49.116ZM67.4081 54.8C67.4081 54.408 67.5481 54.072 67.8281 53.792C68.1081 53.4933 68.4441 53.344 68.8361 53.344C69.2095 53.344 69.5361 53.4933 69.8161 53.792C70.0961 54.072 70.2361 54.408 70.2361 54.8C70.2361 55.2107 70.0961 55.5653 69.8161 55.864C69.5361 56.144 69.2095 56.284 68.8361 56.284C68.4441 56.284 68.1081 56.144 67.8281 55.864C67.5481 55.5653 67.4081 55.2107 67.4081 54.8ZM67.2401 60.568C67.2401 60.176 67.3895 59.84 67.6881 59.56C67.9868 59.28 68.3508 59.14 68.7801 59.14C69.2095 59.14 69.5735 59.28 69.8721 59.56C70.1708 59.84 70.3201 60.176 70.3201 60.568C70.3201 60.96 70.1708 61.296 69.8721 61.576C69.5735 61.856 69.2095 61.996 68.7801 61.996C68.3508 61.996 67.9868 61.856 67.6881 61.576C67.3895 61.296 67.2401 60.96 67.2401 60.568ZM67.4081 46.4C67.4081 46.0267 67.5388 45.7093 67.8001 45.448C68.0801 45.1867 68.4161 45.056 68.8081 45.056C69.2001 45.056 69.5268 45.1867 69.7881 45.448C70.0681 45.7093 70.2081 46.0267 70.2081 46.4C70.2081 46.792 70.0681 47.1187 69.7881 47.38C69.5268 47.6413 69.2001 47.772 68.8081 47.772C68.4161 47.772 68.0801 47.6413 67.8001 47.38C67.5388 47.1187 67.4081 46.792 67.4081 46.4ZM67.4081 51.86C67.4081 51.468 67.5481 51.132 67.8281 50.852C68.1081 50.5533 68.4441 50.404 68.8361 50.404C69.2095 50.404 69.5361 50.5533 69.8161 50.852C70.0961 51.132 70.2361 51.468 70.2361 51.86C70.2361 52.2707 70.0961 52.6253 69.8161 52.924C69.5361 53.204 69.2095 53.344 68.8361 53.344C68.4441 53.344 68.1081 53.204 67.8281 52.924C67.5481 52.6253 67.4081 52.2707 67.4081 51.86ZM67.3241 57.712C67.3241 57.32 67.4548 56.984 67.7161 56.704C67.9961 56.424 68.3508 56.284 68.7801 56.284C69.2095 56.284 69.5735 56.424 69.8721 56.704C70.1708 56.984 70.3201 57.32 70.3201 57.712C70.3201 58.104 70.1708 58.44 69.8721 58.72C69.5735 59 69.2095 59.14 68.7801 59.14C68.3508 59.14 67.9961 59 67.7161 58.72C67.4548 58.44 67.3241 58.104 67.3241 57.712Z" fill="#FFCC00"/>
<path d="M49.88 79.796C49.88 79.404 50.0107 79.0773 50.272 78.816C50.552 78.536 50.888 78.396 51.28 78.396C51.672 78.396 51.9987 78.536 52.26 78.816C52.54 79.0773 52.68 79.404 52.68 79.796C52.68 80.188 52.54 80.524 52.26 80.804C51.9987 81.0653 51.672 81.196 51.28 81.196C50.888 81.196 50.552 81.0653 50.272 80.804C50.0107 80.524 49.88 80.188 49.88 79.796ZM37.476 79.796C37.476 79.4227 37.616 79.1053 37.896 78.844C38.176 78.5827 38.512 78.452 38.904 78.452C39.296 78.452 39.632 78.5827 39.912 78.844C40.192 79.1053 40.332 79.4227 40.332 79.796C40.332 80.1693 40.192 80.4867 39.912 80.748C39.632 81.0093 39.296 81.14 38.904 81.14C38.512 81.14 38.176 81.0093 37.896 80.748C37.616 80.4867 37.476 80.1693 37.476 79.796ZM40.332 79.824C40.332 79.4507 40.4627 79.1333 40.724 78.872C41.004 78.592 41.34 78.452 41.732 78.452C42.1053 78.452 42.4227 78.592 42.684 78.872C42.964 79.1333 43.104 79.4507 43.104 79.824C43.104 80.216 42.964 80.552 42.684 80.832C42.4227 81.0933 42.1053 81.224 41.732 81.224C41.34 81.224 41.004 81.0933 40.724 80.832C40.4627 80.552 40.332 80.216 40.332 79.824ZM43.664 79.796C43.664 79.4227 43.804 79.096 44.084 78.816C44.364 78.536 44.7 78.396 45.092 78.396C45.484 78.396 45.82 78.536 46.1 78.816C46.38 79.096 46.52 79.4227 46.52 79.796C46.52 80.188 46.38 80.524 46.1 80.804C45.82 81.084 45.484 81.224 45.092 81.224C44.7 81.224 44.364 81.084 44.084 80.804C43.804 80.524 43.664 80.188 43.664 79.796ZM46.52 79.796C46.52 79.404 46.6507 79.0773 46.912 78.816C47.192 78.536 47.528 78.396 47.92 78.396C48.312 78.396 48.6387 78.536 48.9 78.816C49.18 79.0773 49.32 79.404 49.32 79.796C49.32 80.188 49.18 80.524 48.9 80.804C48.6387 81.0653 48.4053 81.196 48.2 81.196C47.6213 81.196 47.192 81.0653 46.912 80.804C46.6507 80.524 46.52 80.188 46.52 79.796ZM46.408 82.624C46.408 82.232 46.548 81.896 46.828 81.616C47.108 81.336 47.4533 81.196 47.864 81.196C48.2747 81.196 48.62 81.336 48.9 81.616C49.18 81.896 49.32 82.232 49.32 82.624C49.32 83.016 49.18 83.352 48.9 83.632C48.62 83.912 48.2747 84.052 47.864 84.052C47.4533 84.052 47.108 83.912 46.828 83.632C46.548 83.352 46.408 83.016 46.408 82.624ZM46.408 85.452C46.408 85.06 46.548 84.7333 46.828 84.472C47.108 84.192 47.4533 84.052 47.864 84.052C48.256 84.052 48.592 84.192 48.872 84.472C49.152 84.7333 49.292 85.06 49.292 85.452C49.292 85.844 49.152 86.18 48.872 86.46C48.592 86.7213 48.256 86.852 47.864 86.852C47.4533 86.852 47.108 86.7213 46.828 86.46C46.548 86.18 46.408 85.844 46.408 85.452ZM46.464 68.708C46.464 68.3347 46.604 68.0173 46.884 67.756C47.164 67.476 47.5093 67.336 47.92 67.336C48.3307 67.336 48.676 67.476 48.956 67.756C49.236 68.0173 49.376 68.3347 49.376 68.708C49.376 69.0813 49.236 69.408 48.956 69.688C48.676 69.9493 48.3307 70.08 47.92 70.08C47.5093 70.08 47.164 69.9493 46.884 69.688C46.604 69.408 46.464 69.0813 46.464 68.708ZM37.476 76.912C37.476 76.5387 37.6067 76.2213 37.868 75.96C38.148 75.6987 38.484 75.568 38.876 75.568C39.268 75.568 39.5947 75.6987 39.856 75.96C40.136 76.2213 40.276 76.5387 40.276 76.912C40.276 77.304 40.136 77.6307 39.856 77.892C39.5947 78.1533 39.268 78.284 38.876 78.284C38.484 78.284 38.148 78.1533 37.868 77.892C37.6067 77.6307 37.476 77.304 37.476 76.912ZM39.996 74.476C39.996 74.1027 40.136 73.7853 40.416 73.524C40.696 73.244 41.032 73.104 41.424 73.104C41.7973 73.104 42.124 73.244 42.404 73.524C42.684 73.7853 42.824 74.1027 42.824 74.476C42.824 74.8493 42.684 75.176 42.404 75.456C42.124 75.7173 41.7973 75.848 41.424 75.848C41.032 75.848 40.696 75.7173 40.416 75.456C40.136 75.176 39.996 74.8493 39.996 74.476ZM43.664 71.452C43.664 71.0787 43.804 70.7613 44.084 70.5C44.364 70.22 44.7 70.08 45.092 70.08C45.484 70.08 45.82 70.22 46.1 70.5C46.38 70.7613 46.52 71.0787 46.52 71.452C46.52 71.8253 46.38 72.152 46.1 72.432C45.82 72.6933 45.484 72.824 45.092 72.824C44.7 72.824 44.364 72.6933 44.084 72.432C43.804 72.152 43.664 71.8253 43.664 71.452ZM46.52 71.452C46.52 71.0787 46.6507 70.7613 46.912 70.5C47.192 70.22 47.528 70.08 47.92 70.08C48.2933 70.08 48.6107 70.22 48.872 70.5C49.152 70.7613 49.292 71.0787 49.292 71.452C49.292 71.8253 49.152 72.152 48.872 72.432C48.6107 72.6933 48.2933 72.824 47.92 72.824C47.528 72.824 47.192 72.6933 46.912 72.432C46.6507 72.152 46.52 71.8253 46.52 71.452ZM46.38 74.196C46.38 73.8227 46.52 73.5053 46.8 73.244C47.08 72.964 47.4253 72.824 47.836 72.824C48.2467 72.824 48.592 72.964 48.872 73.244C49.152 73.5053 49.292 73.8227 49.292 74.196C49.292 74.5693 49.152 74.896 48.872 75.176C48.592 75.4373 48.2467 75.568 47.836 75.568C47.4253 75.568 47.08 75.4373 46.8 75.176C46.52 74.896 46.38 74.5693 46.38 74.196ZM46.38 76.996C46.38 76.604 46.52 76.268 46.8 75.988C47.0987 75.708 47.4533 75.568 47.864 75.568C48.256 75.568 48.592 75.708 48.872 75.988C49.1707 76.268 49.32 76.604 49.32 76.996C49.32 77.388 49.1707 77.724 48.872 78.004C48.592 78.284 48.256 78.424 47.864 78.424C47.4533 78.424 47.0987 78.284 46.8 78.004C46.52 77.724 46.38 77.388 46.38 76.996Z" fill="#FFCC00"/>
<path d="M55.1517 85.368C55.1517 84.976 55.301 84.64 55.5997 84.36C55.8983 84.08 56.2623 83.94 56.6917 83.94C57.121 83.94 57.485 84.08 57.7837 84.36C58.0823 84.64 58.2317 84.976 58.2317 85.368C58.2317 85.816 58.0823 86.152 57.7837 86.376C57.4103 86.656 57.0463 86.796 56.6917 86.796C56.2623 86.796 55.8983 86.656 55.5997 86.376C55.301 86.096 55.1517 85.76 55.1517 85.368ZM65.7917 85.368C65.7917 84.976 65.941 84.64 66.2397 84.36C66.5383 84.08 66.9023 83.94 67.3317 83.94C67.761 83.94 68.125 84.08 68.4237 84.36C68.7223 84.64 68.8717 84.976 68.8717 85.368C68.8717 85.76 68.7223 86.096 68.4237 86.376C68.125 86.656 67.761 86.796 67.3317 86.796C66.9023 86.796 66.5383 86.656 66.2397 86.376C65.941 86.096 65.7917 85.76 65.7917 85.368ZM55.3197 71.116C55.3197 70.7427 55.4503 70.4253 55.7117 70.164C55.9917 69.9027 56.3277 69.772 56.7197 69.772C57.1117 69.772 57.4383 69.9027 57.6997 70.164C57.9797 70.4253 58.1197 70.7427 58.1197 71.116C58.1197 71.508 57.9797 71.8347 57.6997 72.096C57.4383 72.3573 57.1117 72.488 56.7197 72.488C56.3277 72.488 55.9917 72.3573 55.7117 72.096C55.4503 71.8347 55.3197 71.508 55.3197 71.116ZM55.3197 76.8C55.3197 76.408 55.4597 76.072 55.7397 75.792C56.0197 75.4933 56.3557 75.344 56.7477 75.344C57.121 75.344 57.4477 75.4933 57.7277 75.792C58.0077 76.072 58.1477 76.408 58.1477 76.8C58.1477 77.2107 58.0077 77.5653 57.7277 77.864C57.4477 78.144 57.121 78.284 56.7477 78.284C56.3557 78.284 56.0197 78.144 55.7397 77.864C55.4597 77.5653 55.3197 77.2107 55.3197 76.8ZM55.1517 82.568C55.1517 82.176 55.301 81.84 55.5997 81.56C55.8983 81.28 56.2623 81.14 56.6917 81.14C57.121 81.14 57.485 81.28 57.7837 81.56C58.0823 81.84 58.2317 82.176 58.2317 82.568C58.2317 83.016 58.0823 83.352 57.7837 83.576C57.4103 83.856 57.0463 83.996 56.6917 83.996C56.2623 83.996 55.8983 83.856 55.5997 83.576C55.301 83.296 55.1517 82.96 55.1517 82.568ZM55.3197 68.4C55.3197 68.0267 55.4503 67.7093 55.7117 67.448C55.9917 67.1867 56.3277 67.056 56.7197 67.056C57.1117 67.056 57.4383 67.1867 57.6997 67.448C57.9797 67.7093 58.1197 68.0267 58.1197 68.4C58.1197 68.792 57.9797 69.1187 57.6997 69.38C57.4383 69.6413 57.1117 69.772 56.7197 69.772C56.3277 69.772 55.9917 69.6413 55.7117 69.38C55.4503 69.1187 55.3197 68.792 55.3197 68.4ZM55.3197 73.86C55.3197 73.468 55.4597 73.132 55.7397 72.852C56.0197 72.5533 56.3557 72.404 56.7477 72.404C57.121 72.404 57.4477 72.5533 57.7277 72.852C58.0077 73.132 58.1477 73.468 58.1477 73.86C58.1477 74.2707 58.0077 74.6253 57.7277 74.924C57.4477 75.204 57.121 75.344 56.7477 75.344C56.3557 75.344 56.0197 75.204 55.7397 74.924C55.4597 74.6253 55.3197 74.2707 55.3197 73.86ZM55.2357 79.712C55.2357 79.32 55.3663 78.984 55.6277 78.704C55.9077 78.424 56.2623 78.284 56.6917 78.284C57.121 78.284 57.485 78.424 57.7837 78.704C58.0823 78.984 58.2317 79.32 58.2317 79.712C58.2317 80.104 58.0823 80.44 57.7837 80.72C57.485 81 57.121 81.14 56.6917 81.14C56.2623 81.14 55.9077 81 55.6277 80.72C55.3663 80.44 55.2357 80.104 55.2357 79.712ZM59.2397 68.4C59.2397 68.0267 59.3703 67.7093 59.6317 67.448C59.9117 67.1867 60.2477 67.056 60.6397 67.056C61.0317 67.056 61.3583 67.1867 61.6197 67.448C61.8997 67.7093 62.0397 68.0267 62.0397 68.4C62.0397 68.792 61.8997 69.1187 61.6197 69.38C61.3583 69.6413 61.0317 69.772 60.6397 69.772C60.2477 69.772 59.9117 69.6413 59.6317 69.38C59.3703 69.1187 59.2397 68.792 59.2397 68.4ZM59.2397 76.66C59.2397 76.268 59.3797 75.932 59.6597 75.652C59.9397 75.3533 60.2757 75.204 60.6677 75.204C61.041 75.204 61.3677 75.3533 61.6477 75.652C61.9277 75.932 62.0677 76.268 62.0677 76.66C62.0677 77.0707 61.9277 77.4253 61.6477 77.724C61.3677 78.004 61.041 78.144 60.6677 78.144C60.2757 78.144 59.9397 78.004 59.6597 77.724C59.3797 77.4253 59.2397 77.0707 59.2397 76.66ZM58.8757 85.312C58.8757 84.92 59.025 84.584 59.3237 84.304C59.6223 84.024 59.9863 83.884 60.4157 83.884C60.845 83.884 61.1903 84.024 61.4517 84.304C61.7317 84.584 61.8717 84.92 61.8717 85.312C61.8717 85.704 61.7317 86.04 61.4517 86.32C61.1903 86.6 60.845 86.74 60.4157 86.74C59.9863 86.74 59.6223 86.6 59.3237 86.32C59.025 86.04 58.8757 85.704 58.8757 85.312ZM62.0397 68.4C62.0397 68.0267 62.1703 67.7093 62.4317 67.448C62.7117 67.1867 63.0477 67.056 63.4397 67.056C63.8317 67.056 64.1583 67.1867 64.4197 67.448C64.6997 67.7093 64.8397 68.0267 64.8397 68.4C64.8397 68.792 64.6997 69.1187 64.4197 69.38C64.1583 69.6413 63.8317 69.772 63.4397 69.772C63.0477 69.772 62.7117 69.6413 62.4317 69.38C62.1703 69.1187 62.0397 68.792 62.0397 68.4ZM62.0397 76.66C62.0397 76.268 62.1797 75.932 62.4597 75.652C62.7397 75.3533 63.0757 75.204 63.4677 75.204C63.841 75.204 64.1677 75.3533 64.4477 75.652C64.7277 75.932 64.8677 76.268 64.8677 76.66C64.8677 77.0707 64.7277 77.4253 64.4477 77.724C64.1677 78.004 63.841 78.144 63.4677 78.144C63.0757 78.144 62.7397 78.004 62.4597 77.724C62.1797 77.4253 62.0397 77.0707 62.0397 76.66ZM61.8717 85.312C61.8717 84.92 62.021 84.584 62.3197 84.304C62.6183 84.024 62.9823 83.884 63.4117 83.884C63.841 83.884 64.1863 84.024 64.4477 84.304C64.7277 84.584 64.8677 84.92 64.8677 85.312C64.8677 85.704 64.7277 86.04 64.4477 86.32C64.1863 86.6 63.841 86.74 63.4117 86.74C62.9823 86.74 62.6183 86.6 62.3197 86.32C62.021 86.04 61.8717 85.704 61.8717 85.312ZM65.9597 71.116C65.9597 70.7427 66.0903 70.4253 66.3517 70.164C66.6317 69.9027 66.9677 69.772 67.3597 69.772C67.7517 69.772 68.0783 69.9027 68.3397 70.164C68.6197 70.4253 68.7597 70.7427 68.7597 71.116C68.7597 71.508 68.6197 71.8347 68.3397 72.096C68.0783 72.3573 67.7517 72.488 67.3597 72.488C66.9677 72.488 66.6317 72.3573 66.3517 72.096C66.0903 71.8347 65.9597 71.508 65.9597 71.116ZM65.9597 76.8C65.9597 76.408 66.0997 76.072 66.3797 75.792C66.6597 75.4933 66.9957 75.344 67.3877 75.344C67.761 75.344 68.0877 75.4933 68.3677 75.792C68.6477 76.072 68.7877 76.408 68.7877 76.8C68.7877 77.2107 68.6477 77.5653 68.3677 77.864C68.0877 78.144 67.761 78.284 67.3877 78.284C66.9957 78.284 66.6597 78.144 66.3797 77.864C66.0997 77.5653 65.9597 77.2107 65.9597 76.8ZM65.7917 82.568C65.7917 82.176 65.941 81.84 66.2397 81.56C66.5383 81.28 66.9023 81.14 67.3317 81.14C67.761 81.14 68.125 81.28 68.4237 81.56C68.7223 81.84 68.8717 82.176 68.8717 82.568C68.8717 82.96 68.7223 83.296 68.4237 83.576C68.125 83.856 67.761 83.996 67.3317 83.996C66.9023 83.996 66.5383 83.856 66.2397 83.576C65.941 83.296 65.7917 82.96 65.7917 82.568ZM65.9597 68.4C65.9597 68.0267 66.0903 67.7093 66.3517 67.448C66.6317 67.1867 66.9677 67.056 67.3597 67.056C67.7517 67.056 68.0783 67.1867 68.3397 67.448C68.6197 67.7093 68.7597 68.0267 68.7597 68.4C68.7597 68.792 68.6197 69.1187 68.3397 69.38C68.0783 69.6413 67.7517 69.772 67.3597 69.772C66.9677 69.772 66.6317 69.6413 66.3517 69.38C66.0903 69.1187 65.9597 68.792 65.9597 68.4ZM65.9597 73.86C65.9597 73.468 66.0997 73.132 66.3797 72.852C66.6597 72.5533 66.9957 72.404 67.3877 72.404C67.761 72.404 68.0877 72.5533 68.3677 72.852C68.6477 73.132 68.7877 73.468 68.7877 73.86C68.7877 74.2707 68.6477 74.6253 68.3677 74.924C68.0877 75.204 67.761 75.344 67.3877 75.344C66.9957 75.344 66.6597 75.204 66.3797 74.924C66.0997 74.6253 65.9597 74.2707 65.9597 73.86ZM65.8757 79.712C65.8757 79.32 66.0063 78.984 66.2677 78.704C66.5477 78.424 66.9023 78.284 67.3317 78.284C67.761 78.284 68.125 78.424 68.4237 78.704C68.7223 78.984 68.8717 79.32 68.8717 79.712C68.8717 80.104 68.7223 80.44 68.4237 80.72C68.125 81 67.761 81.14 67.3317 81.14C66.9023 81.14 66.5477 81 66.2677 80.72C66.0063 80.44 65.8757 80.104 65.8757 79.712Z" fill="#FFCC00"/>
</svg>
